FILE "Test File.m4b" MP4
TRACK 1 AUDIO
  TITLE "Chapter 01"
  INDEX 01 0:0:00
TRACK 2 AUDIO
  TITLE "Chapter 02"
  INDEX 01 0:13:28
TRACK 3 AUDIO
  TITLE "Chapter 03"
  INDEX 01 20:24:11
TRACK 4 AUDIO
  TITLE "Chapter 04"
  INDEX 01 29:51:69
TRACK 5 AUDIO
  TITLE "Chapter 05"
  INDEX 01 49:10:42
TRACK 6 AUDIO
  TITLE "Chapter 06"
  INDEX 01 61:30:20
TRACK 7 AUDIO
  TITLE "Chapter 07"
  INDEX 01 69:40:24
TRACK 8 AUDIO
  TITLE "Chapter 08"
  INDEX 01 89:7:55
TRACK 9 AUDIO
  TITLE "Chapter 09"
  INDEX 01 94:16:42
TRACK 10 AUDIO
  TITLE "Chapter 10"
  INDEX 01 102:49:03
TRACK 11 AUDIO
  TITLE "Chapter 11"
  INDEX 01 114:29:80
TRACK 12 AUDIO
  TITLE "Chapter 12"
  INDEX 01 144:35:02
TRACK 13 AUDIO
  TITLE "Chapter 13"
  INDEX 01 180:27:51
TRACK 14 AUDIO
  TITLE "Chapter 14"
  INDEX 01 196:3:36
TRACK 15 AUDIO
  TITLE "Chapter 15"
  INDEX 01 207:12:89
TRACK 16 AUDIO
  TITLE "Chapter 16"
  INDEX 01 218:53:67
TRACK 17 AUDIO
  TITLE "Chapter 17"
  INDEX 01 229:39:18
TRACK 18 AUDIO
  TITLE "Chapter 18"
  INDEX 01 243:31:29
TRACK 19 AUDIO
  TITLE "Chapter 19"
  INDEX 01 258:34:13
TRACK 20 AUDIO
  TITLE "Chapter 20"
  INDEX 01 279:25:78
TRACK 21 AUDIO
  TITLE "Chapter 21"
  INDEX 01 288:59:59
TRACK 22 AUDIO
  TITLE "Chapter 22"
  INDEX 01 322:19:20
TRACK 23 AUDIO
  TITLE "Chapter 23"
  INDEX 01 334:22:92
TRACK 24 AUDIO
  TITLE "Chapter 24"
  INDEX 01 345:5:41
TRACK 25 AUDIO
  TITLE "Chapter 25"
  INDEX 01 372:9:00
TRACK 26 AUDIO
  TITLE "Chapter 26"
  INDEX 01 390:1:53
TRACK 27 AUDIO
  TITLE "Chapter 27"
  INDEX 01 405:38:18
TRACK 28 AUDIO
  TITLE "Chapter 28"
  INDEX 01 446:53:89
TRACK 29 AUDIO
  TITLE "Chapter 29"
  INDEX 01 466:39:64
TRACK 30 AUDIO
  TITLE "Chapter 30"
  INDEX 01 476:27:47
TRACK 31 AUDIO
  TITLE "Chapter 31"
  INDEX 01 488:10:71
TRACK 32 AUDIO
  TITLE "Chapter 32"
  INDEX 01 519:23:50
TRACK 33 AUDIO
  TITLE "Chapter 33"
  INDEX 01 538:28:52
TRACK 34 AUDIO
  TITLE "Chapter 34"
  INDEX 01 555:3:82
TRACK 35 AUDIO
  TITLE "Chapter 35"
  INDEX 01 572:57:09
TRACK 36 AUDIO
  TITLE "Chapter 36"
  INDEX 01 573:29:94
